<?xml version="1.0" encoding="UTF-8"?>
<!-- Generated by Pixelmator Pro 3.6.9 -->
<svg width="512" height="512" viewBox="0 0 512 512" xmlns="http://www.w3.org/2000/svg">
    <g id="Group">
        <path id="Path" fill="#ffffff" stroke="none" d="M 131.300003 20.350006 C 116.699997 20.450012 103.199997 30.350006 99.370003 45.169983 C 97.040001 54.299988 98.82 63.570007 103.5 71.01001 C 95.830002 75.269989 89.809998 82.540009 87.470001 91.669983 C 85.150002 100.799988 86.910004 110 91.57 117.5 C 83.624489 121.857483 77.844498 129.317871 75.610001 138.100006 C 73.269997 147.200012 75.07 156.5 79.790001 163.899994 C 72.07 168.200012 66.040001 175.399994 63.700001 184.600006 C 61.369999 193.700012 63.16 203 67.889999 210.399994 C 60.169998 214.700012 54.139999 221.899994 51.799999 231.100006 C 49.459999 240.200012 51.259998 249.5 55.98 256.899994 C 48.259998 261.200012 42.23 268.399994 39.900002 277.600006 C 37.560001 286.700012 39.360001 296 44.080002 303.399994 C 36.360001 307.700012 30.33 314.899994 27.99 324.100006 C 25.639999 333.299988 27.48 342.600006 32.290001 350.100006 C 24.197393 354.45639 18.294743 361.997864 16.01 370.899994 C 11.53 388.399994 22.26 406.5 39.799999 411 L 39.900002 410.799988 L 71.610001 419 L 70.139999 424.700012 L 331.700012 491.700012 L 374 326.5 L 351.600006 347.700012 L 263.799988 374.200012 L 279.299988 331.700012 L 127.599998 292.899994 L 132 275.5 L 285.5 314.799988 L 295.200012 288.100006 L 310.5 273.700012 L 143.5 230.899994 L 147.899994 213.5 L 325.899994 259.100006 L 365.5 221.700012 L 159.399994 168.899994 L 163.800003 151.5 L 380.700012 207 L 380.600006 207.399994 L 412.100006 177.600006 L 430.399994 106.200012 L 168.800003 39.160004 L 164 57.820007 C 166.199997 41.5 155.899994 25.549988 139.5 21.380005 C 136.800003 20.679993 134 20.339996 131.300003 20.350006 Z M 131.600006 38.339996 C 132.800003 38.339996 134 38.529999 135.100006 38.820007 C 143.199997 40.910004 148 48.950012 145.899994 57.089996 L 163.100006 61.48999 L 152.100006 104.299988 C 154.300003 87.950012 143.899994 72.040009 127.599998 67.869995 L 127 67.720001 C 119.199997 65.380005 114.800003 57.570007 116.800003 49.649994 C 118.5 43.040009 124.099998 38.649994 130.5 38.350006 L 131.600006 38.350006 Z M 119.699997 84.850006 C 120.599998 84.850006 121.599998 84.98999 122.599998 85.209991 L 123.199997 85.359985 C 131.300003 87.440002 136.100006 95.480011 134 103.600006 L 151.199997 108 L 140.199997 151 C 142.600006 134.600006 132.199997 118.399994 115.800003 114.299988 C 115.099998 114.100006 114.5 113.899994 113.900002 113.799988 C 106.900002 111.100006 103 103.700012 104.900002 96.179993 C 106.599998 89.209991 112.800003 84.730011 119.699997 84.890015 Z M 179.600006 89.440002 L 396.600006 145.100006 L 392.200012 162.5 L 175.199997 106.899994 Z M 106.699997 131.299988 L 108 131.299988 C 108.5 131.299988 108.900002 131.299988 109.400002 131.399994 C 110 131.600006 110.599998 131.700012 111.199997 131.899994 L 111.300003 131.700012 C 119.400002 133.799988 124.199997 141.799988 122.099998 150 L 139.300003 154.399994 L 128.300003 197.399994 C 130.600006 181.100006 120.199997 165 103.900002 160.799988 C 95.720001 158.700012 90.959999 150.700012 93.050003 142.5 C 94.739998 135.899994 100.300003 131.600006 106.699997 131.299988 Z M 465.399994 152 L 455.200012 161.600006 L 486.799988 195.100006 L 497 185.5 Z M 442.100006 174 L 315.700012 293.5 L 347.200012 327 L 473.700012 207.5 Z M 94.870003 177.700012 C 96.349998 177.700012 97.870003 177.799988 99.400002 178.200012 C 107.5 180.299988 112.300003 188.299988 110.199997 196.5 L 127.400002 200.899994 L 116.400002 243.899994 C 118.699997 227.5 108.300003 211.5 91.959999 207.299988 C 83.82 205.200012 79.059998 197.200012 81.139999 189 C 82.839996 182.399994 88.459999 178 94.870003 177.700012 Z M 82.959999 224.200012 C 84.440002 224.200012 85.959999 224.299988 87.489998 224.700012 C 95.629997 226.799988 100.400002 234.799988 98.300003 243 L 115.5 247.399994 L 104.5 290.299988 C 106.800003 274 96.400002 258 80.050003 253.799988 C 71.910004 251.700012 67.160004 243.700012 69.239998 235.5 C 70.93 228.899994 76.550003 224.5 82.959999 224.200012 Z M 71.059998 270.700012 C 72.540001 270.700012 74.059998 270.799988 75.589996 271.200012 C 83.720001 273.299988 88.480003 281.299988 86.400002 289.5 L 103.599998 293.799988 L 92.660004 336.600006 C 94.82 320.299988 84.410004 304.5 68.150002 300.299988 C 60.009998 298.200012 55.25 290.200012 57.330002 282 C 59.029999 275.399994 64.650002 271 71.059998 270.700012 Z M 306.399994 309.899994 L 293 346.600006 L 330.399994 335.299988 Z M 59.150002 317.200012 C 60.630001 317.200012 62.150002 317.299988 63.68 317.700012 C 71.82 319.799988 76.580002 327.799988 74.489998 336 L 91.699997 340.299988 L 80.699997 383.299988 C 82.800003 367.100006 72.400002 351.299988 56.169998 347.100006 L 56.27 346.799988 C 48.110001 344.700012 43.349998 336.700012 45.43 328.5 C 47.119999 321.899994 52.740002 317.5 59.150002 317.200012 Z M 116.099998 337.5 L 333.200012 393 L 328.799988 410.399994 L 111.699997 354.899994 Z M 47.18 364 C 48.66 364 50.18 364.100006 51.700001 364.5 C 59.84 366.600006 64.599998 374.600006 62.52 382.799988 L 79.720001 387.100006 L 76.029999 401.5 L 44.110001 393.299988 L 44.110001 393.5 C 36.099998 391.299988 31.440001 383.399994 33.5 375.299988 C 35.200001 368.700012 40.82 364.299988 47.23 364 Z"/>
    </g>
</svg>
